<svg width="132" height="64" viewBox="0 0 132 64" fill="none" xmlns="http://www.w3.org/2000/svg">
<g clip-path="url(#clip0_4649_226)">
<path d="M127.662 0.111949L88.8627 10.5847C88.0101 10.838 87.2568 11.3501 86.7063 12.0504C86.1558 12.7507 85.8352 13.6049 85.7886 14.4955V21.0894L130.728 8.64928V2.36325C130.728 0.663777 129.361 -0.347907 127.662 0.111949Z" fill="url(#paint0_linear_4649_226)"/>
<path d="M85.8005 33.0856C85.8005 34.789 87.176 35.7967 88.8746 35.3369L127.662 24.8681C128.513 24.6122 129.265 24.0986 129.813 23.3978C130.362 22.6971 130.682 21.8433 130.728 20.9534V11.8242L85.7925 24.2603L85.8005 33.0856Z" fill="url(#paint1_linear_4649_226)"/>
<g opacity="0.15">
<mask id="mask0_4649_226" style="mask-type:luminance" maskUnits="userSpaceOnUse" x="85" y="11" width="46" height="48">
<path d="M130.728 31.6262V56.5584C130.728 58.2659 129.353 59.2736 127.65 58.8137L88.8627 48.365C88.0092 48.1119 87.2551 47.5994 86.7045 46.8982C86.1538 46.197 85.8338 45.3416 85.7886 44.4502V11.3525C85.7886 14.1517 88.0533 17.0428 90.8523 17.7985L127.646 27.7114C128.501 27.9636 129.256 28.4757 129.808 29.1769C130.36 29.8781 130.682 30.7339 130.728 31.6262Z" fill="white"/>
</mask>
<g mask="url(#mask0_4649_226)">
<path d="M127.662 0.111949L88.8627 10.5847C88.0101 10.838 87.2568 11.3501 86.7063 12.0504C86.1558 12.7507 85.8352 13.6049 85.7886 14.4955V21.0894L130.728 8.64928V2.36325C130.728 0.663777 129.361 -0.347907 127.662 0.111949Z" fill="black"/>
<path d="M85.8005 33.0856C85.8005 34.789 87.176 35.7967 88.8746 35.3369L127.662 24.8681C128.513 24.6122 129.265 24.0986 129.813 23.3978C130.362 22.6971 130.682 21.8433 130.728 20.9534V11.8242L85.7925 24.2603L85.8005 33.0856Z" fill="black"/>
</g>
</g>
<path d="M130.728 36.7046V61.6368C130.728 63.3442 129.353 64.3519 127.65 63.8921L88.8627 53.4393C88.0092 53.1876 87.2549 52.676 86.7042 51.9753C86.1534 51.2747 85.8334 50.4196 85.7886 49.5286V16.4309C85.7886 19.23 88.0533 22.1211 90.8523 22.8729L127.658 32.8018C128.509 33.0554 129.26 33.5665 129.81 34.2652C130.36 34.9639 130.68 35.8159 130.728 36.7046Z" fill="url(#paint2_linear_4649_226)"/>
<path d="M115.604 45.9137C115.604 43.3585 117.674 41.847 120.222 42.5468L130.329 45.3099C130.793 45.4505 131.202 45.731 131.501 46.113C131.8 46.4951 131.974 46.9603 132 47.4452V53.3594C132.007 53.5633 131.964 53.766 131.875 53.9492C131.785 54.1324 131.651 54.2905 131.486 54.4093C131.32 54.5281 131.128 54.604 130.926 54.6301C130.724 54.6562 130.519 54.6318 130.329 54.559L120.222 51.7959C117.674 51.1121 115.604 48.4729 115.604 45.9137Z" fill="url(#paint3_linear_4649_226)"/>
<path d="M122.281 49.2425C123.11 48.5164 123.011 47.0416 122.06 45.9485C121.108 44.8555 119.665 44.5581 118.835 45.2843C118.006 46.0104 118.105 47.4852 119.056 48.5783C120.008 49.6713 121.451 49.9687 122.281 49.2425Z" fill="white"/>
<path d="M32.9821 39.1318C32.2099 39.1387 31.439 39.0664 30.6814 38.9158C30.0272 38.784 29.3968 38.5534 28.8115 38.232C28.249 37.9181 27.7424 37.5127 27.3123 37.0324C26.8489 36.502 26.4587 35.9116 26.152 35.277C23.353 37.8708 19.1624 39.1677 13.5804 39.1677C10.3906 39.1464 7.75509 38.7465 5.67378 37.9681C3.59246 37.1897 2.05739 36.0021 1.06857 34.4052C0.648186 33.6578 0.349379 32.8478 0.183411 32.006C0.0612462 31.41 -0.000206111 30.803 5.19347e-07 30.1945C5.19347e-07 29.9626 2.73303e-07 29.5787 0.055821 29.0469C0.120767 28.3655 0.266669 27.6943 0.490425 27.0475C0.744041 26.2651 1.08231 25.5128 1.49918 24.8042L4.44572 26.6597C4.1609 27.1289 3.91551 27.6211 3.71208 28.1312C3.52471 28.6017 3.40133 29.0953 3.34525 29.5987C3.32601 29.782 3.31669 29.9663 3.31734 30.1506C3.32166 30.5065 3.35904 30.8613 3.42899 31.2102C3.53633 31.681 3.73111 32.1273 4.00314 32.5258C4.32376 33.0405 4.7715 33.4633 5.30297 33.7534C5.96715 34.1232 6.67793 34.4016 7.41618 34.5812C8.33325 34.8092 9.26628 34.967 10.2072 35.053C11.2492 35.157 12.3696 35.209 13.5684 35.209C14.6569 35.209 15.6936 35.169 16.6705 35.085C17.5871 35.0105 18.4981 34.8769 19.3977 34.6851C20.1784 34.5256 20.9431 34.2954 21.6824 33.9974C22.3175 33.7462 22.9095 33.3968 23.4367 32.9617C23.8704 32.634 24.2384 32.2269 24.5212 31.7621C24.7965 31.3026 25.0275 30.8179 25.211 30.3145C25.3945 29.8056 25.5476 29.2862 25.6695 28.759C25.7892 28.2272 25.9207 27.7153 26.0683 27.2275L29.581 28.1752C29.3906 28.7158 29.2374 29.269 29.1225 29.8307C29.0241 30.3204 28.9734 30.8186 28.9709 31.3182V31.814C28.9888 32.1905 29.0613 32.5623 29.1863 32.9177C29.323 33.3638 29.5573 33.7736 29.8721 34.1173C30.2195 34.4767 30.6453 34.7505 31.1161 34.9171C31.7239 35.1255 32.3638 35.2243 33.006 35.209H33.5562V39.1318H32.9821ZM14.5732 23.5646L11.9775 26.1678L9.34997 23.5486L11.9456 20.9294L14.5732 23.5646ZM20.3466 23.5646L17.751 26.1838L15.1234 23.5486L17.7191 20.9454L20.3466 23.5646Z" fill="white"/>
<path d="M47.4157 35.2009V39.1237H32.9502V35.2009H47.4157Z" fill="white"/>
<path d="M46.8057 35.2009H47.9659C48.4371 35.214 48.9073 35.1492 49.3575 35.009C49.6974 34.8991 49.9953 34.6868 50.2107 34.4011C50.4326 34.0846 50.5773 33.7203 50.6334 33.3375C50.715 32.8178 50.7524 32.292 50.745 31.766C50.745 31.534 50.745 31.2541 50.745 30.9262C50.745 30.5983 50.745 30.1585 50.745 29.5986C50.745 29.0388 50.7171 28.339 50.6772 27.4873C50.6373 26.6356 50.5696 25.5639 50.4779 24.2883C50.438 23.1953 50.3928 22.149 50.3423 21.1493C50.2905 20.1456 50.2426 19.2539 50.1948 18.4661C50.1469 17.6784 50.111 17.0306 50.0752 16.5187C50.0393 16.0069 50.0154 15.719 50.0074 15.587L53.855 14.7593C53.9667 15.9589 54.0703 17.3705 54.17 18.97C54.2697 20.5695 54.3534 22.3009 54.4371 24.1483C54.477 25.5399 54.5129 26.6796 54.5408 27.5753C54.5687 28.471 54.6006 29.2068 54.6285 29.7946C54.6564 30.3824 54.6684 30.8622 54.6804 31.2341C54.6923 31.606 54.6804 31.9699 54.6804 32.3178C54.6941 33.2791 54.5596 34.2368 54.2816 35.1569C54.0503 35.9647 53.6285 36.7047 53.0517 37.3144C52.475 37.9241 51.7604 38.3856 50.9683 38.6598C49.9957 38.9973 48.9709 39.1584 47.942 39.1357H46.7817L46.8057 35.2009Z" fill="white"/>
<path d="M61.7895 14.7554C62.0553 16.7068 62.2348 18.5728 62.3278 20.3536C62.4208 22.1344 62.482 23.8672 62.5112 25.552C62.5311 26.9915 62.5391 28.3271 62.5312 29.5507C62.5232 30.7744 62.5311 31.918 62.4953 32.9737C62.4594 34.0293 62.4434 35.017 62.4036 35.9328C62.3637 36.8485 62.3198 37.7002 62.28 38.4999L58.2928 39.1118C58.5081 35.7395 58.6157 32.7617 58.6157 30.1786C58.6157 29.1389 58.5998 28.1632 58.5679 27.2515C58.4881 25.1615 58.3964 23.1927 58.2928 21.3453C58.1891 19.4979 58.0562 17.7344 57.894 16.055L61.7895 14.7554Z" fill="white"/>
<path d="M64.9673 46.0257C66.3537 45.7553 67.7115 45.3536 69.0223 44.826C70.1258 44.3856 71.1791 43.8279 72.1642 43.1626C72.9752 42.6177 73.7032 41.9577 74.3252 41.2032C74.8346 40.5932 75.2121 39.8838 75.4337 39.1198C74.6096 39.1198 73.8042 39.0932 73.0174 39.0398C72.2711 38.994 71.5289 38.8951 70.7966 38.7439C70.1336 38.606 69.4878 38.3955 68.8707 38.1161C68.3037 37.8567 67.7909 37.4917 67.3596 37.0405C66.9245 36.5814 66.5891 36.0368 66.3748 35.441C66.1246 34.7121 66.0057 33.9443 66.0239 33.1737C66.0264 32.5825 66.0878 31.9931 66.2073 31.4142C66.3267 30.7954 66.5029 30.189 66.7336 29.6028C66.959 29.02 67.2422 28.4614 67.5789 27.9353C67.9056 27.4219 68.2969 26.9529 68.7432 26.5397C69.1699 26.1416 69.6606 25.8185 70.1945 25.584C70.733 25.3448 71.3161 25.2235 71.905 25.2282C73.4786 25.2282 74.9193 25.9333 76.2271 27.3435C76.7106 27.8859 77.1331 28.4799 77.4871 29.1149C77.865 29.7887 78.1813 30.4953 78.432 31.2263C78.6972 31.9931 78.8973 32.781 79.0301 33.5815C79.1673 34.4008 79.2366 35.23 79.2374 36.0608C79.2459 37.3019 79.0781 38.5379 78.739 39.7316C78.4223 40.84 77.954 41.8991 77.3475 42.8786C76.7559 43.8359 76.0399 44.71 75.2184 45.4778C74.3886 46.2514 73.4767 46.9312 72.4991 47.5052C71.4957 48.0961 70.4366 48.5863 69.3372 48.9687C68.2141 49.3625 67.0587 49.6569 65.8843 49.8485L64.9673 46.0257ZM71.905 29.1709C71.591 29.1889 71.2908 29.3065 71.0478 29.5068C70.7247 29.7512 70.441 30.0439 70.2065 30.3745C69.9477 30.7373 69.7348 31.1309 69.5725 31.5462C69.4122 31.9454 69.3283 32.3714 69.3253 32.8018C69.3104 33.1791 69.4151 33.5515 69.6243 33.8655C69.8232 34.1483 70.0836 34.3821 70.3859 34.5492C70.7171 34.7326 71.073 34.8673 71.4425 34.9491C71.8412 35.0331 72.2399 35.0971 72.6107 35.1411L73.3125 35.169C73.5677 35.169 73.8308 35.169 74.1099 35.193H74.9074H75.653C75.6171 34.7754 75.5437 34.3618 75.4337 33.9574C75.3117 33.5019 75.1612 33.0544 74.9831 32.6178C74.8003 32.1739 74.5912 31.7413 74.3571 31.3223C74.1378 30.9325 73.8843 30.5632 73.5996 30.2186C73.3587 29.924 73.0782 29.6642 72.7662 29.4468C72.5144 29.2679 72.2136 29.1716 71.905 29.1709Z" fill="white"/>
<path d="M1.74261 48.6409C1.8875 48.8037 2.06036 48.9392 2.25297 49.0407C2.43859 49.1339 2.64349 49.1819 2.85105 49.1807C3.07055 49.1904 3.28647 49.1225 3.46109 48.9888C3.53807 48.9257 3.59939 48.8455 3.64021 48.7546C3.68103 48.6637 3.70025 48.5645 3.69634 48.4649C3.70098 48.2948 3.64436 48.1287 3.53685 47.9971C3.41765 47.8657 3.27231 47.7608 3.11022 47.6892C2.92282 47.5972 2.7115 47.5012 2.41645 47.3973C2.27291 47.3453 2.10545 47.2733 1.91805 47.1853C1.72578 47.0912 1.54624 46.973 1.38376 46.8334C1.22009 46.6862 1.08492 46.51 0.985046 46.3136C0.871006 46.0813 0.814907 45.8247 0.821571 45.5658C0.812867 45.2451 0.906455 44.9299 1.08871 44.6661C1.26861 44.4078 1.51731 44.2055 1.80641 44.0823C2.12899 43.9396 2.47858 43.8686 2.83112 43.8744C3.17488 43.8668 3.51622 43.9336 3.8319 44.0703C4.0969 44.19 4.33649 44.3597 4.53764 44.5701C4.71297 44.7564 4.85947 44.9681 4.97224 45.1979L3.99937 45.7418C3.91844 45.5974 3.82074 45.4632 3.7083 45.3419C3.59192 45.2258 3.4572 45.1299 3.30958 45.058C3.15622 44.9811 2.98657 44.9427 2.81517 44.946C2.6168 44.9325 2.42056 44.9939 2.26494 45.118C2.20747 45.1675 2.16134 45.2288 2.12969 45.2978C2.09803 45.3668 2.0816 45.4419 2.08152 45.5178C2.07896 45.6657 2.13321 45.8089 2.23304 45.9177C2.36146 46.0533 2.51435 46.1632 2.68359 46.2416C2.93197 46.3605 3.18767 46.4634 3.44913 46.5495C3.64571 46.6194 3.83528 46.7078 4.01531 46.8134C4.19769 46.9155 4.36536 47.0419 4.51371 47.1893C4.66228 47.3396 4.78012 47.5175 4.8606 47.7132C5.04078 48.1959 5.02359 48.7306 4.81275 49.2007C4.69913 49.4301 4.53562 49.6309 4.33429 49.7885C4.12973 49.9485 3.89904 50.0716 3.65248 50.1524C3.39529 50.2379 3.12599 50.2811 2.85504 50.2804C2.49858 50.2824 2.14558 50.2102 1.81837 50.0684C1.50446 49.9313 1.22009 49.7344 0.981059 49.4886C0.750953 49.2558 0.562171 48.9854 0.422852 48.6889L1.30801 48.0611C1.43207 48.2692 1.57775 48.4635 1.74261 48.6409Z" fill="white"/>
<path d="M8.57636 43.9983V50.1004H7.31641V43.9983H8.57636Z" fill="white"/>
<path d="M16.7221 43.9981V50.3961L12.392 46.3134V50.0962H11.1958V43.6982L15.5259 47.785V43.9981H16.7221Z" fill="white"/>
<path d="M20.6177 48.0929C20.791 48.3837 21.0388 48.6225 21.3354 48.7847C21.6316 48.9451 21.9636 49.0276 22.3003 49.0246C22.7928 49.0378 23.2774 48.8981 23.6878 48.6247C23.8606 48.5039 24.0186 48.363 24.1583 48.2049V49.5964C23.9181 49.7916 23.6491 49.9481 23.3609 50.0603C23.0035 50.1785 22.6286 50.2339 22.2524 50.2242C21.8115 50.2285 21.3736 50.1512 20.9606 49.9963C20.5761 49.8542 20.2254 49.6332 19.9308 49.3474C19.6363 49.0617 19.4045 48.7175 19.2501 48.3368C18.931 47.5096 18.931 46.5928 19.2501 45.7656C19.4045 45.3849 19.6363 45.0407 19.9308 44.755C20.2254 44.4692 20.5761 44.2482 20.9606 44.1061C21.3736 43.9512 21.8115 43.8739 22.2524 43.8782C22.6289 43.8676 23.0043 43.9245 23.3609 44.0461C23.6489 44.1569 23.918 44.312 24.1583 44.506V45.9096C24.0175 45.7584 23.8596 45.6242 23.6878 45.5097C23.4987 45.3774 23.292 45.2724 23.0738 45.1978C22.8237 45.1189 22.5624 45.0811 22.3003 45.0858C21.9636 45.0828 21.6316 45.1653 21.3354 45.3258C21.04 45.486 20.7924 45.7219 20.6177 46.0095C20.4374 46.3306 20.3427 46.6928 20.3427 47.0612C20.3427 47.4296 20.4374 47.7918 20.6177 48.1129V48.0929Z" fill="white"/>
<path d="M27.8944 43.9983V50.1004H26.6982V43.9983H27.8944ZM27.4957 43.9983H30.5658V45.054H27.4957V43.9983ZM27.4957 46.3416H30.3904V47.3812H27.4957V46.3416ZM27.4957 49.0447H30.5658V50.1004H27.4957V49.0447Z" fill="white"/>
<path d="M39.2817 47.1974C39.4224 47.0469 39.5554 46.8894 39.6804 46.7255C39.7855 46.5937 39.8702 46.4468 39.9316 46.2896C39.9904 46.1464 40.0203 45.9928 40.0193 45.8378C40.0195 45.727 39.9992 45.6172 39.9595 45.5139C39.9183 45.4101 39.8558 45.3161 39.7761 45.238C39.6925 45.1526 39.592 45.0858 39.481 45.042C39.3549 44.9889 39.2191 44.963 39.0823 44.9661C38.8867 44.9613 38.6941 45.0141 38.5281 45.118C38.3723 45.2263 38.2494 45.3758 38.1732 45.5499C38.0855 45.7529 38.042 45.9724 38.0457 46.1937H36.8296C36.8237 45.7869 36.9125 45.3844 37.0887 45.018C37.2613 44.6731 37.5282 44.3846 37.8583 44.1863C38.2378 43.9697 38.6698 43.8631 39.1062 43.8784C39.4344 43.8716 39.7607 43.9286 40.0672 44.0463C40.3233 44.1464 40.5565 44.2974 40.753 44.4902C40.924 44.6649 41.0594 44.8714 41.1517 45.098C41.2373 45.3074 41.282 45.5314 41.2832 45.7578C41.2857 46.0779 41.2061 46.3932 41.052 46.6735C40.8892 46.9639 40.6805 47.2259 40.434 47.4493L38.8391 48.9488H41.4148V50.0925H36.5186L39.2817 47.1974Z" fill="white"/>
<path d="M43.7674 45.3699C43.9484 44.9332 44.2465 44.5553 44.6286 44.2782C45.0093 44.0253 45.4559 43.8904 45.9125 43.8904C46.3692 43.8904 46.8157 44.0253 47.1964 44.2782C47.5772 44.5547 47.8729 44.933 48.0497 45.3699C48.4538 46.4487 48.4538 47.638 48.0497 48.7168C47.873 49.1549 47.5774 49.5345 47.1964 49.8125C46.8157 50.0654 46.3692 50.2003 45.9125 50.2003C45.4559 50.2003 45.0093 50.0654 44.6286 49.8125C44.2464 49.5339 43.9483 49.1547 43.7674 48.7168C43.3581 47.6389 43.3581 46.4478 43.7674 45.3699ZM44.7562 47.8851C44.8036 48.116 44.8885 48.3375 45.0074 48.5409C45.109 48.7023 45.2452 48.8389 45.4061 48.9408C45.5563 49.0399 45.7328 49.0914 45.9125 49.0887C46.0935 49.0915 46.2712 49.0399 46.4229 48.9408C46.5846 48.84 46.7211 48.7031 46.8216 48.5409C46.9405 48.3375 47.0254 48.116 47.0728 47.8851C47.1345 47.6096 47.1639 47.3277 47.1605 47.0454C47.1637 46.7617 47.1342 46.4786 47.0728 46.2016C47.0254 45.972 46.9405 45.7518 46.8216 45.5498C46.7236 45.3792 46.587 45.2341 46.4229 45.126C46.2705 45.0285 46.0933 44.9771 45.9125 44.978C45.733 44.9772 45.5571 45.0286 45.4061 45.126C45.243 45.2352 45.1066 45.3801 45.0074 45.5498C44.8885 45.7518 44.8036 45.972 44.7562 46.2016C44.6948 46.4786 44.6654 46.7617 44.6685 47.0454C44.6651 47.3277 44.6946 47.6096 44.7562 47.8851Z" fill="white"/>
<path d="M50.6615 45.3698C50.8397 44.9314 51.1384 44.5529 51.5227 44.2781C51.8936 44.0128 52.3391 43.8727 52.7946 43.8782C53.2579 43.8704 53.7117 44.0104 54.0905 44.2781C54.4691 44.5559 54.7632 44.9339 54.9398 45.3698C55.349 46.4477 55.349 47.6388 54.9398 48.7167C54.7632 49.1537 54.4692 49.533 54.0905 49.8124C53.7109 50.0784 53.2577 50.2182 52.7946 50.2123C52.3394 50.2159 51.8945 50.076 51.5227 49.8124C51.1382 49.5361 50.8396 49.1562 50.6615 48.7167C50.2469 47.6398 50.2469 46.4467 50.6615 45.3698ZM51.6463 47.885C51.6975 48.1148 51.7822 48.3357 51.8975 48.5408C52.0003 48.7013 52.1362 48.8376 52.2962 48.9407C52.4483 49.0374 52.6246 49.0888 52.8046 49.0888C52.9847 49.0888 53.161 49.0374 53.313 48.9407C53.4736 48.8384 53.6098 48.7019 53.7117 48.5408C53.8271 48.3357 53.9117 48.1148 53.9629 47.885C54.0226 47.6091 54.052 47.3275 54.0506 47.0453C54.0518 46.7617 54.0224 46.4788 53.9629 46.2015C53.9119 45.9729 53.8273 45.7533 53.7117 45.5497C53.6123 45.3802 53.476 45.2353 53.313 45.1259C53.161 45.0291 52.9847 44.9778 52.8046 44.9778C52.6246 44.9778 52.4483 45.0291 52.2962 45.1259C52.134 45.2362 51.9979 45.3809 51.8975 45.5497C51.7819 45.7533 51.6973 45.9729 51.6463 46.2015C51.5869 46.4788 51.5575 46.7617 51.5586 47.0453C51.5572 47.3275 51.5866 47.6091 51.6463 47.885Z" fill="white"/>
<path d="M57.9978 50.0763L59.9555 47.7771L60.1708 47.6971C60.0511 47.8331 59.8988 47.9364 59.7282 47.997C59.5515 48.0522 59.367 48.0779 59.182 48.073C58.949 48.0721 58.7185 48.0245 58.5041 47.933C58.0447 47.7363 57.6799 47.3676 57.4874 46.9053C57.3829 46.6518 57.33 46.3799 57.3319 46.1056C57.3202 45.6837 57.4295 45.2673 57.6469 44.906C57.8533 44.5798 58.1478 44.319 58.4962 44.1542C58.8693 43.9755 59.2789 43.8865 59.6923 43.8943C60.1057 43.8875 60.515 43.9764 60.8885 44.1542C61.2349 44.3204 61.5278 44.5809 61.7338 44.906C61.9524 45.267 62.0631 45.6833 62.0527 46.1056C62.0555 46.3949 61.9957 46.6814 61.8773 46.9453C61.7635 47.2011 61.6203 47.4426 61.4507 47.6651L59.6006 50.0883L57.9978 50.0763ZM60.6572 45.4898C60.5641 45.3218 60.426 45.1833 60.2585 45.0899C60.0804 44.9954 59.8819 44.9459 59.6804 44.9459C59.4788 44.9459 59.2804 44.9954 59.1022 45.0899C58.9348 45.1833 58.7967 45.3218 58.7035 45.4898C58.6012 45.6741 58.5502 45.8827 58.556 46.0936C58.5514 46.3044 58.6023 46.5126 58.7035 46.6974C58.7982 46.8642 58.9359 47.0023 59.1022 47.0973C59.2792 47.1953 59.4782 47.2467 59.6804 47.2467C59.8826 47.2467 60.0815 47.1953 60.2585 47.0973C60.4248 47.0023 60.5626 46.8642 60.6572 46.6974C60.7585 46.5126 60.8093 46.3044 60.8048 46.0936C60.8105 45.8827 60.7595 45.6741 60.6572 45.4898Z" fill="white"/>
</g>
<defs>
<linearGradient id="paint0_linear_4649_226" x1="85.8005" y1="10.5447" x2="130.736" y2="10.5447" gradientUnits="userSpaceOnUse">
<stop stop-color="#5BB9FD"/>
<stop offset="1" stop-color="#8E88FF"/>
</linearGradient>
<linearGradient id="paint1_linear_4649_226" x1="85.8005" y1="23.6365" x2="130.736" y2="23.6365" gradientUnits="userSpaceOnUse">
<stop stop-color="#5BB9FD"/>
<stop offset="1" stop-color="#8E88FF"/>
</linearGradient>
<linearGradient id="paint2_linear_4649_226" x1="85.8005" y1="40.2155" x2="130.736" y2="40.2155" gradientUnits="userSpaceOnUse">
<stop stop-color="#5BBAFD"/>
<stop offset="1" stop-color="#36EDFD"/>
</linearGradient>
<linearGradient id="paint3_linear_4649_226" x1="115.604" y1="48.5089" x2="132" y2="48.5089" gradientUnits="userSpaceOnUse">
<stop stop-color="#5BB9FD"/>
<stop offset="1" stop-color="#8E88FF"/>
</linearGradient>
<clipPath id="clip0_4649_226">
<rect width="132" height="64" fill="white"/>
</clipPath>
</defs>
</svg>
